<?xml version="1.0" encoding="UTF-8"?>
<!DOCTYPE svg PUBLIC "-//W3C//DTD SVG 1.1//EN" "http://www.w3.org/Graphics/SVG/1.1/DTD/svg11.dtd">
<svg version="1.2" width="215.9mm" height="279.4mm" viewBox="0 0 21590 27940" preserveAspectRatio="xMidYMid" fill-rule="evenodd" stroke-width="28.222" stroke-linejoin="round" xmlns="http://www.w3.org/2000/svg" xmlns:ooo="http://xml.openoffice.org/svg/export" xmlns:xlink="http://www.w3.org/1999/xlink" xmlns:presentation="http://sun.com/xmlns/staroffice/presentation" xmlns:smil="http://www.w3.org/2001/SMIL20/" xmlns:anim="urn:oasis:names:tc:opendocument:xmlns:animation:1.0" xml:space="preserve">
 <defs class="ClipPathGroup">
  <clipPath id="presentation_clip_path" clipPathUnits="userSpaceOnUse">
   <rect x="0" y="0" width="21590" height="27940"/>
  </clipPath>
  <clipPath id="presentation_clip_path_shrink" clipPathUnits="userSpaceOnUse">
   <rect x="21" y="27" width="21547" height="27885"/>
  </clipPath>
 </defs>
 <defs class="TextShapeIndex">
  <g ooo:slide="id1" ooo:id-list="id3 id4 id5 id6 id7 id8 id9 id10 id11 id12 id13 id14"/>
 </defs>
 <defs class="EmbeddedBulletChars">
  <g id="bullet-char-template(57356)" transform="scale(0.00048828125,-0.00048828125)">
   <path d="M 580,1141 L 1163,571 580,0 -4,571 580,1141 Z"/>
  </g>
  <g id="bullet-char-template(57354)" transform="scale(0.00048828125,-0.00048828125)">
   <path d="M 8,1128 L 1137,1128 1137,0 8,0 8,1128 Z"/>
  </g>
  <g id="bullet-char-template(10146)" transform="scale(0.00048828125,-0.00048828125)">
   <path d="M 174,0 L 602,739 174,1481 1456,739 174,0 Z M 1358,739 L 309,1346 659,739 1358,739 Z"/>
  </g>
  <g id="bullet-char-template(10132)" transform="scale(0.00048828125,-0.00048828125)">
   <path d="M 2015,739 L 1276,0 717,0 1260,543 174,543 174,936 1260,936 717,1481 1274,1481 2015,739 Z"/>
  </g>
  <g id="bullet-char-template(10007)" transform="scale(0.00048828125,-0.00048828125)">
   <path d="M 0,-2 C -7,14 -16,27 -25,37 L 356,567 C 262,823 215,952 215,954 215,979 228,992 255,992 264,992 276,990 289,987 310,991 331,999 354,1012 L 381,999 492,748 772,1049 836,1024 860,1049 C 881,1039 901,1025 922,1006 886,937 835,863 770,784 769,783 710,716 594,584 L 774,223 C 774,196 753,168 711,139 L 727,119 C 717,90 699,76 672,76 641,76 570,178 457,381 L 164,-76 C 142,-110 111,-127 72,-127 30,-127 9,-110 8,-76 1,-67 -2,-52 -2,-32 -2,-23 -1,-13 0,-2 Z"/>
  </g>
  <g id="bullet-char-template(10004)" transform="scale(0.00048828125,-0.00048828125)">
   <path d="M 285,-33 C 182,-33 111,30 74,156 52,228 41,333 41,471 41,549 55,616 82,672 116,743 169,778 240,778 293,778 328,747 346,684 L 369,508 C 377,444 397,411 428,410 L 1163,1116 C 1174,1127 1196,1133 1229,1133 1271,1133 1292,1118 1292,1087 L 1292,965 C 1292,929 1282,901 1262,881 L 442,47 C 390,-6 338,-33 285,-33 Z"/>
  </g>
  <g id="bullet-char-template(9679)" transform="scale(0.00048828125,-0.00048828125)">
   <path d="M 813,0 C 632,0 489,54 383,161 276,268 223,411 223,592 223,773 276,916 383,1023 489,1130 632,1184 813,1184 992,1184 1136,1130 1245,1023 1353,916 1407,772 1407,592 1407,412 1353,268 1245,161 1136,54 992,0 813,0 Z"/>
  </g>
  <g id="bullet-char-template(8226)" transform="scale(0.00048828125,-0.00048828125)">
   <path d="M 346,457 C 273,457 209,483 155,535 101,586 74,649 74,723 74,796 101,859 155,911 209,963 273,989 346,989 419,989 480,963 531,910 582,859 608,796 608,723 608,648 583,586 532,535 482,483 420,457 346,457 Z"/>
  </g>
  <g id="bullet-char-template(8211)" transform="scale(0.00048828125,-0.00048828125)">
   <path d="M -4,459 L 1135,459 1135,606 -4,606 -4,459 Z"/>
  </g>
  <g id="bullet-char-template(61548)" transform="scale(0.00048828125,-0.00048828125)">
   <path d="M 173,740 C 173,903 231,1043 346,1159 462,1274 601,1332 765,1332 928,1332 1067,1274 1183,1159 1299,1043 1357,903 1357,740 1357,577 1299,437 1183,322 1067,206 928,148 765,148 601,148 462,206 346,322 231,437 173,577 173,740 Z"/>
  </g>
 </defs>
 <defs class="TextEmbeddedBitmaps"/>
 <g>
  <g id="id2" class="Master_Slide">
   <g id="bg-id2" class="Background"/>
   <g id="bo-id2" class="BackgroundObjects"/>
  </g>
 </g>
 <g class="SlideGroup">
  <g>
   <g id="container-id1">
    <g id="id1" class="Slide" clip-path="url(#presentation_clip_path)">
     <g class="Page">
      <g class="Group">
       <g class="Group">
        <g class="com.sun.star.drawing.ClosedBezierShape">
         <g id="id3">
          <rect class="BoundingBox" stroke="none" fill="none" x="15242" y="2908" width="5212" height="11044"/>
          <path fill="rgb(178,178,178)" stroke="none" d="M 20348,8441 C 20046,10251 19170,13271 17059,13571 15831,13746 14820,14475 15423,13269 16328,12666 17232,11460 17836,8745 18439,6031 18137,4523 17534,3015 20550,2110 20626,7271 20348,8441 Z"/>
          <path fill="none" stroke="rgb(52,101,164)" d="M 20348,8441 C 20046,10251 19170,13271 17059,13571 15831,13746 14820,14475 15423,13269 16328,12666 17232,11460 17836,8745 18439,6031 18137,4523 17534,3015 20550,2110 20626,7271 20348,8441 Z"/>
         </g>
        </g>
        <g class="com.sun.star.drawing.ClosedBezierShape">
         <g id="id4">
          <rect class="BoundingBox" stroke="none" fill="none" x="15326" y="999" width="5212" height="11043"/>
          <path fill="rgb(153,153,153)" stroke="none" d="M 20431,6508 C 20130,4698 19253,1678 17142,1379 15914,1203 14903,474 15506,1680 16411,2283 17316,3490 17919,6204 18522,8918 18220,10426 17617,11934 20633,12839 20709,7679 20431,6508 Z"/>
          <path fill="none" stroke="rgb(52,101,164)" d="M 20431,6508 C 20130,4698 19253,1678 17142,1379 15914,1203 14903,474 15506,1680 16411,2283 17316,3490 17919,6204 18522,8918 18220,10426 17617,11934 20633,12839 20709,7679 20431,6508 Z"/>
         </g>
        </g>
       </g>
       <g class="Group">
        <g class="com.sun.star.drawing.ClosedBezierShape">
         <g id="id5">
          <rect class="BoundingBox" stroke="none" fill="none" x="12395" y="2911" width="5212" height="11043"/>
          <path fill="rgb(178,178,178)" stroke="none" d="M 17501,8444 C 17199,10253 16323,13274 14212,13573 12984,13749 11972,14478 12576,13271 13480,12668 14385,11462 14988,8748 15591,6033 15290,4525 14687,3017 17703,2113 17779,7273 17501,8444 Z"/>
          <path fill="none" stroke="rgb(52,101,164)" d="M 17501,8444 C 17199,10253 16323,13274 14212,13573 12984,13749 11972,14478 12576,13271 13480,12668 14385,11462 14988,8748 15591,6033 15290,4525 14687,3017 17703,2113 17779,7273 17501,8444 Z"/>
         </g>
        </g>
        <g class="com.sun.star.drawing.ClosedBezierShape">
         <g id="id6">
          <rect class="BoundingBox" stroke="none" fill="none" x="12478" y="1001" width="5212" height="11043"/>
          <path fill="rgb(153,153,153)" stroke="none" d="M 17584,6510 C 17282,4701 16406,1680 14295,1381 13067,1205 12056,476 12659,1683 13563,2286 14468,3492 15071,6206 15675,8921 15373,10429 14770,11937 17786,12841 17862,7681 17584,6510 Z"/>
          <path fill="none" stroke="rgb(52,101,164)" d="M 17584,6510 C 17282,4701 16406,1680 14295,1381 13067,1205 12056,476 12659,1683 13563,2286 14468,3492 15071,6206 15675,8921 15373,10429 14770,11937 17786,12841 17862,7681 17584,6510 Z"/>
         </g>
        </g>
       </g>
       <g class="Group">
        <g class="com.sun.star.drawing.ClosedBezierShape">
         <g id="id7">
          <rect class="BoundingBox" stroke="none" fill="none" x="9548" y="2913" width="5212" height="11043"/>
          <path fill="rgb(178,178,178)" stroke="none" d="M 14653,8446 C 14352,10256 13476,13276 11365,13575 10137,13751 9125,14480 9728,13274 10633,12671 11538,11464 12141,8750 12744,6036 12443,4528 11839,3020 14855,2115 14931,7275 14653,8446 Z"/>
          <path fill="none" stroke="rgb(52,101,164)" d="M 14653,8446 C 14352,10256 13476,13276 11365,13575 10137,13751 9125,14480 9728,13274 10633,12671 11538,11464 12141,8750 12744,6036 12443,4528 11839,3020 14855,2115 14931,7275 14653,8446 Z"/>
         </g>
        </g>
        <g class="com.sun.star.drawing.ClosedBezierShape">
         <g id="id8">
          <rect class="BoundingBox" stroke="none" fill="none" x="9631" y="1003" width="5212" height="11044"/>
          <path fill="rgb(153,153,153)" stroke="none" d="M 14737,6513 C 14435,4703 13559,1683 11448,1383 10220,1208 9208,479 9811,1685 10716,2288 11621,3494 12224,6209 12827,8923 12526,10431 11923,11939 14938,12844 15014,7683 14737,6513 Z"/>
          <path fill="none" stroke="rgb(52,101,164)" d="M 14737,6513 C 14435,4703 13559,1683 11448,1383 10220,1208 9208,479 9811,1685 10716,2288 11621,3494 12224,6209 12827,8923 12526,10431 11923,11939 14938,12844 15014,7683 14737,6513 Z"/>
         </g>
        </g>
       </g>
       <g class="Group">
        <g class="com.sun.star.drawing.ClosedBezierShape">
         <g id="id9">
          <rect class="BoundingBox" stroke="none" fill="none" x="6698" y="2913" width="5212" height="11043"/>
          <path fill="rgb(178,178,178)" stroke="none" d="M 11804,8446 C 11502,10256 10626,13276 8515,13575 7287,13751 6276,14480 6879,13274 7783,12671 8688,11464 9291,8750 9895,6036 9593,4528 8990,3020 12006,2115 12082,7275 11804,8446 Z"/>
          <path fill="none" stroke="rgb(52,101,164)" d="M 11804,8446 C 11502,10256 10626,13276 8515,13575 7287,13751 6276,14480 6879,13274 7783,12671 8688,11464 9291,8750 9895,6036 9593,4528 8990,3020 12006,2115 12082,7275 11804,8446 Z"/>
         </g>
        </g>
        <g class="com.sun.star.drawing.ClosedBezierShape">
         <g id="id10">
          <rect class="BoundingBox" stroke="none" fill="none" x="6781" y="1003" width="5212" height="11044"/>
          <path fill="rgb(153,153,153)" stroke="none" d="M 11887,6513 C 11585,4703 10709,1683 8598,1383 7370,1208 6359,479 6962,1685 7867,2288 8771,3494 9375,6209 9978,8923 9676,10431 9073,11939 12089,12844 12165,7683 11887,6513 Z"/>
          <path fill="none" stroke="rgb(52,101,164)" d="M 11887,6513 C 11585,4703 10709,1683 8598,1383 7370,1208 6359,479 6962,1685 7867,2288 8771,3494 9375,6209 9978,8923 9676,10431 9073,11939 12089,12844 12165,7683 11887,6513 Z"/>
         </g>
        </g>
       </g>
       <g class="Group">
        <g class="com.sun.star.drawing.ClosedBezierShape">
         <g id="id11">
          <rect class="BoundingBox" stroke="none" fill="none" x="3849" y="2913" width="5212" height="11043"/>
          <path fill="rgb(178,178,178)" stroke="none" d="M 8954,8446 C 8653,10256 7776,13276 5665,13575 4438,13751 3426,14480 4029,13274 4934,12671 5839,11464 6442,8750 7045,6036 6743,4528 6140,3020 9156,2115 9232,7275 8954,8446 Z"/>
          <path fill="none" stroke="rgb(52,101,164)" d="M 8954,8446 C 8653,10256 7776,13276 5665,13575 4438,13751 3426,14480 4029,13274 4934,12671 5839,11464 6442,8750 7045,6036 6743,4528 6140,3020 9156,2115 9232,7275 8954,8446 Z"/>
         </g>
        </g>
        <g class="com.sun.star.drawing.ClosedBezierShape">
         <g id="id12">
          <rect class="BoundingBox" stroke="none" fill="none" x="3932" y="1003" width="5212" height="11044"/>
          <path fill="rgb(153,153,153)" stroke="none" d="M 9037,6513 C 8736,4703 7859,1683 5748,1383 4521,1208 3509,479 4112,1685 5017,2288 5922,3494 6525,6209 7128,8923 6826,10431 6223,11939 9239,12844 9315,7683 9037,6513 Z"/>
          <path fill="none" stroke="rgb(52,101,164)" d="M 9037,6513 C 8736,4703 7859,1683 5748,1383 4521,1208 3509,479 4112,1685 5017,2288 5922,3494 6525,6209 7128,8923 6826,10431 6223,11939 9239,12844 9315,7683 9037,6513 Z"/>
         </g>
        </g>
       </g>
       <g class="Group">
        <g class="com.sun.star.drawing.ClosedBezierShape">
         <g id="id13">
          <rect class="BoundingBox" stroke="none" fill="none" x="999" y="2913" width="5212" height="11043"/>
          <path fill="rgb(178,178,178)" stroke="none" d="M 6105,8446 C 5803,10256 4927,13276 2816,13575 1588,13751 576,14480 1179,13274 2084,12671 2989,11464 3592,8750 4195,6036 3894,4528 3291,3020 6306,2115 6382,7275 6105,8446 Z"/>
          <path fill="none" stroke="rgb(52,101,164)" d="M 6105,8446 C 5803,10256 4927,13276 2816,13575 1588,13751 576,14480 1179,13274 2084,12671 2989,11464 3592,8750 4195,6036 3894,4528 3291,3020 6306,2115 6382,7275 6105,8446 Z"/>
         </g>
        </g>
        <g class="com.sun.star.drawing.ClosedBezierShape">
         <g id="id14">
          <rect class="BoundingBox" stroke="none" fill="none" x="1082" y="1003" width="5212" height="11044"/>
          <path fill="rgb(153,153,153)" stroke="none" d="M 6188,6513 C 5886,4703 5010,1683 2899,1383 1671,1208 659,479 1263,1685 2167,2288 3072,3494 3675,6209 4278,8923 3977,10431 3374,11939 6390,12844 6466,7683 6188,6513 Z"/>
          <path fill="none" stroke="rgb(52,101,164)" d="M 6188,6513 C 5886,4703 5010,1683 2899,1383 1671,1208 659,479 1263,1685 2167,2288 3072,3494 3675,6209 4278,8923 3977,10431 3374,11939 6390,12844 6466,7683 6188,6513 Z"/>
         </g>
        </g>
       </g>
      </g>
     </g>
    </g>
   </g>
  </g>
 </g>
</svg>