<?xml version="1.0" encoding="UTF-8"?>
<!DOCTYPE svg PUBLIC "-//W3C//DTD SVG 1.1//EN" "http://www.w3.org/Graphics/SVG/1.1/DTD/svg11.dtd">
<svg version="1.2" width="215.9mm" height="279.4mm" viewBox="0 0 21590 27940" preserveAspectRatio="xMidYMid" fill-rule="evenodd" stroke-width="28.222" stroke-linejoin="round" xmlns="http://www.w3.org/2000/svg" xmlns:ooo="http://xml.openoffice.org/svg/export" xmlns:xlink="http://www.w3.org/1999/xlink" xmlns:presentation="http://sun.com/xmlns/staroffice/presentation" xmlns:smil="http://www.w3.org/2001/SMIL20/" xmlns:anim="urn:oasis:names:tc:opendocument:xmlns:animation:1.0" xml:space="preserve">
 <defs class="ClipPathGroup">
  <clipPath id="presentation_clip_path" clipPathUnits="userSpaceOnUse">
   <rect x="0" y="0" width="21590" height="27940"/>
  </clipPath>
  <clipPath id="presentation_clip_path_shrink" clipPathUnits="userSpaceOnUse">
   <rect x="21" y="27" width="21547" height="27885"/>
  </clipPath>
 </defs>
 <defs class="TextShapeIndex">
  <g ooo:slide="id1" ooo:id-list="id3 id4 id5 id6 id7 id8 id9 id10 id11 id12 id13 id14"/>
 </defs>
 <defs class="EmbeddedBulletChars">
  <g id="bullet-char-template(57356)" transform="scale(0.00048828125,-0.00048828125)">
   <path d="M 580,1141 L 1163,571 580,0 -4,571 580,1141 Z"/>
  </g>
  <g id="bullet-char-template(57354)" transform="scale(0.00048828125,-0.00048828125)">
   <path d="M 8,1128 L 1137,1128 1137,0 8,0 8,1128 Z"/>
  </g>
  <g id="bullet-char-template(10146)" transform="scale(0.00048828125,-0.00048828125)">
   <path d="M 174,0 L 602,739 174,1481 1456,739 174,0 Z M 1358,739 L 309,1346 659,739 1358,739 Z"/>
  </g>
  <g id="bullet-char-template(10132)" transform="scale(0.00048828125,-0.00048828125)">
   <path d="M 2015,739 L 1276,0 717,0 1260,543 174,543 174,936 1260,936 717,1481 1274,1481 2015,739 Z"/>
  </g>
  <g id="bullet-char-template(10007)" transform="scale(0.00048828125,-0.00048828125)">
   <path d="M 0,-2 C -7,14 -16,27 -25,37 L 356,567 C 262,823 215,952 215,954 215,979 228,992 255,992 264,992 276,990 289,987 310,991 331,999 354,1012 L 381,999 492,748 772,1049 836,1024 860,1049 C 881,1039 901,1025 922,1006 886,937 835,863 770,784 769,783 710,716 594,584 L 774,223 C 774,196 753,168 711,139 L 727,119 C 717,90 699,76 672,76 641,76 570,178 457,381 L 164,-76 C 142,-110 111,-127 72,-127 30,-127 9,-110 8,-76 1,-67 -2,-52 -2,-32 -2,-23 -1,-13 0,-2 Z"/>
  </g>
  <g id="bullet-char-template(10004)" transform="scale(0.00048828125,-0.00048828125)">
   <path d="M 285,-33 C 182,-33 111,30 74,156 52,228 41,333 41,471 41,549 55,616 82,672 116,743 169,778 240,778 293,778 328,747 346,684 L 369,508 C 377,444 397,411 428,410 L 1163,1116 C 1174,1127 1196,1133 1229,1133 1271,1133 1292,1118 1292,1087 L 1292,965 C 1292,929 1282,901 1262,881 L 442,47 C 390,-6 338,-33 285,-33 Z"/>
  </g>
  <g id="bullet-char-template(9679)" transform="scale(0.00048828125,-0.00048828125)">
   <path d="M 813,0 C 632,0 489,54 383,161 276,268 223,411 223,592 223,773 276,916 383,1023 489,1130 632,1184 813,1184 992,1184 1136,1130 1245,1023 1353,916 1407,772 1407,592 1407,412 1353,268 1245,161 1136,54 992,0 813,0 Z"/>
  </g>
  <g id="bullet-char-template(8226)" transform="scale(0.00048828125,-0.00048828125)">
   <path d="M 346,457 C 273,457 209,483 155,535 101,586 74,649 74,723 74,796 101,859 155,911 209,963 273,989 346,989 419,989 480,963 531,910 582,859 608,796 608,723 608,648 583,586 532,535 482,483 420,457 346,457 Z"/>
  </g>
  <g id="bullet-char-template(8211)" transform="scale(0.00048828125,-0.00048828125)">
   <path d="M -4,459 L 1135,459 1135,606 -4,606 -4,459 Z"/>
  </g>
  <g id="bullet-char-template(61548)" transform="scale(0.00048828125,-0.00048828125)">
   <path d="M 173,740 C 173,903 231,1043 346,1159 462,1274 601,1332 765,1332 928,1332 1067,1274 1183,1159 1299,1043 1357,903 1357,740 1357,577 1299,437 1183,322 1067,206 928,148 765,148 601,148 462,206 346,322 231,437 173,577 173,740 Z"/>
  </g>
 </defs>
 <defs class="TextEmbeddedBitmaps"/>
 <g>
  <g id="id2" class="Master_Slide">
   <g id="bg-id2" class="Background"/>
   <g id="bo-id2" class="BackgroundObjects"/>
  </g>
 </g>
 <g class="SlideGroup">
  <g>
   <g id="container-id1">
    <g id="id1" class="Slide" clip-path="url(#presentation_clip_path)">
     <g class="Page">
      <g class="Group">
       <g class="Group">
        <g class="com.sun.star.drawing.ClosedBezierShape">
         <g id="id3">
          <rect class="BoundingBox" stroke="none" fill="none" x="6997" y="1803" width="2197" height="4652"/>
          <path fill="rgb(178,178,178)" stroke="none" d="M 9148,4134 C 9021,4896 8652,6168 7763,6294 7246,6368 6820,6675 7074,6167 7455,5913 7836,5405 8090,4262 8344,3119 8217,2484 7963,1849 9233,1468 9265,3641 9148,4134 Z"/>
          <path fill="none" stroke="rgb(52,101,164)" d="M 9148,4134 C 9021,4896 8652,6168 7763,6294 7246,6368 6820,6675 7074,6167 7455,5913 7836,5405 8090,4262 8344,3119 8217,2484 7963,1849 9233,1468 9265,3641 9148,4134 Z"/>
         </g>
        </g>
        <g class="com.sun.star.drawing.ClosedBezierShape">
         <g id="id4">
          <rect class="BoundingBox" stroke="none" fill="none" x="7032" y="999" width="2197" height="4652"/>
          <path fill="rgb(153,153,153)" stroke="none" d="M 9183,3319 C 9056,2557 8687,1285 7798,1159 7281,1085 6855,778 7109,1286 7490,1540 7871,2048 8125,3191 8379,4334 8252,4969 7998,5604 9268,5985 9300,3812 9183,3319 Z"/>
          <path fill="none" stroke="rgb(52,101,164)" d="M 9183,3319 C 9056,2557 8687,1285 7798,1159 7281,1085 6855,778 7109,1286 7490,1540 7871,2048 8125,3191 8379,4334 8252,4969 7998,5604 9268,5985 9300,3812 9183,3319 Z"/>
         </g>
        </g>
       </g>
       <g class="Group">
        <g class="com.sun.star.drawing.ClosedBezierShape">
         <g id="id5">
          <rect class="BoundingBox" stroke="none" fill="none" x="5798" y="1804" width="2197" height="4652"/>
          <path fill="rgb(178,178,178)" stroke="none" d="M 7949,4135 C 7822,4897 7453,6169 6564,6295 6047,6369 5621,6676 5875,6168 6256,5914 6637,5406 6891,4263 7145,3120 7018,2485 6764,1850 8034,1469 8066,3642 7949,4135 Z"/>
          <path fill="none" stroke="rgb(52,101,164)" d="M 7949,4135 C 7822,4897 7453,6169 6564,6295 6047,6369 5621,6676 5875,6168 6256,5914 6637,5406 6891,4263 7145,3120 7018,2485 6764,1850 8034,1469 8066,3642 7949,4135 Z"/>
         </g>
        </g>
        <g class="com.sun.star.drawing.ClosedBezierShape">
         <g id="id6">
          <rect class="BoundingBox" stroke="none" fill="none" x="5833" y="1000" width="2197" height="4652"/>
          <path fill="rgb(153,153,153)" stroke="none" d="M 7984,3320 C 7857,2558 7488,1286 6599,1160 6082,1086 5656,779 5910,1287 6291,1541 6672,2049 6926,3192 7180,4335 7053,4970 6799,5605 8069,5986 8101,3813 7984,3320 Z"/>
          <path fill="none" stroke="rgb(52,101,164)" d="M 7984,3320 C 7857,2558 7488,1286 6599,1160 6082,1086 5656,779 5910,1287 6291,1541 6672,2049 6926,3192 7180,4335 7053,4970 6799,5605 8069,5986 8101,3813 7984,3320 Z"/>
         </g>
        </g>
       </g>
       <g class="Group">
        <g class="com.sun.star.drawing.ClosedBezierShape">
         <g id="id7">
          <rect class="BoundingBox" stroke="none" fill="none" x="4599" y="1805" width="2197" height="4652"/>
          <path fill="rgb(178,178,178)" stroke="none" d="M 6750,4136 C 6623,4898 6254,6170 5365,6296 4848,6370 4422,6677 4676,6169 5057,5915 5438,5407 5692,4264 5946,3121 5819,2486 5565,1851 6835,1470 6867,3643 6750,4136 Z"/>
          <path fill="none" stroke="rgb(52,101,164)" d="M 6750,4136 C 6623,4898 6254,6170 5365,6296 4848,6370 4422,6677 4676,6169 5057,5915 5438,5407 5692,4264 5946,3121 5819,2486 5565,1851 6835,1470 6867,3643 6750,4136 Z"/>
         </g>
        </g>
        <g class="com.sun.star.drawing.ClosedBezierShape">
         <g id="id8">
          <rect class="BoundingBox" stroke="none" fill="none" x="4634" y="1001" width="2197" height="4652"/>
          <path fill="rgb(153,153,153)" stroke="none" d="M 6785,3321 C 6658,2559 6289,1287 5400,1161 4883,1087 4457,780 4711,1288 5092,1542 5473,2050 5727,3193 5981,4336 5854,4971 5600,5606 6870,5987 6902,3814 6785,3321 Z"/>
          <path fill="none" stroke="rgb(52,101,164)" d="M 6785,3321 C 6658,2559 6289,1287 5400,1161 4883,1087 4457,780 4711,1288 5092,1542 5473,2050 5727,3193 5981,4336 5854,4971 5600,5606 6870,5987 6902,3814 6785,3321 Z"/>
         </g>
        </g>
       </g>
       <g class="Group">
        <g class="com.sun.star.drawing.ClosedBezierShape">
         <g id="id9">
          <rect class="BoundingBox" stroke="none" fill="none" x="3399" y="1805" width="2197" height="4652"/>
          <path fill="rgb(178,178,178)" stroke="none" d="M 5550,4136 C 5423,4898 5054,6170 4165,6296 3648,6370 3222,6677 3476,6169 3857,5915 4238,5407 4492,4264 4746,3121 4619,2486 4365,1851 5635,1470 5667,3643 5550,4136 Z"/>
          <path fill="none" stroke="rgb(52,101,164)" d="M 5550,4136 C 5423,4898 5054,6170 4165,6296 3648,6370 3222,6677 3476,6169 3857,5915 4238,5407 4492,4264 4746,3121 4619,2486 4365,1851 5635,1470 5667,3643 5550,4136 Z"/>
         </g>
        </g>
        <g class="com.sun.star.drawing.ClosedBezierShape">
         <g id="id10">
          <rect class="BoundingBox" stroke="none" fill="none" x="3434" y="1001" width="2197" height="4652"/>
          <path fill="rgb(153,153,153)" stroke="none" d="M 5585,3321 C 5458,2559 5089,1287 4200,1161 3683,1087 3257,780 3511,1288 3892,1542 4273,2050 4527,3193 4781,4336 4654,4971 4400,5606 5670,5987 5702,3814 5585,3321 Z"/>
          <path fill="none" stroke="rgb(52,101,164)" d="M 5585,3321 C 5458,2559 5089,1287 4200,1161 3683,1087 3257,780 3511,1288 3892,1542 4273,2050 4527,3193 4781,4336 4654,4971 4400,5606 5670,5987 5702,3814 5585,3321 Z"/>
         </g>
        </g>
       </g>
       <g class="Group">
        <g class="com.sun.star.drawing.ClosedBezierShape">
         <g id="id11">
          <rect class="BoundingBox" stroke="none" fill="none" x="2199" y="1805" width="2197" height="4652"/>
          <path fill="rgb(178,178,178)" stroke="none" d="M 4350,4136 C 4223,4898 3854,6170 2965,6296 2448,6370 2022,6677 2276,6169 2657,5915 3038,5407 3292,4264 3546,3121 3419,2486 3165,1851 4435,1470 4467,3643 4350,4136 Z"/>
          <path fill="none" stroke="rgb(52,101,164)" d="M 4350,4136 C 4223,4898 3854,6170 2965,6296 2448,6370 2022,6677 2276,6169 2657,5915 3038,5407 3292,4264 3546,3121 3419,2486 3165,1851 4435,1470 4467,3643 4350,4136 Z"/>
         </g>
        </g>
        <g class="com.sun.star.drawing.ClosedBezierShape">
         <g id="id12">
          <rect class="BoundingBox" stroke="none" fill="none" x="2234" y="1001" width="2197" height="4652"/>
          <path fill="rgb(153,153,153)" stroke="none" d="M 4385,3321 C 4258,2559 3889,1287 3000,1161 2483,1087 2057,780 2311,1288 2692,1542 3073,2050 3327,3193 3581,4336 3454,4971 3200,5606 4470,5987 4502,3814 4385,3321 Z"/>
          <path fill="none" stroke="rgb(52,101,164)" d="M 4385,3321 C 4258,2559 3889,1287 3000,1161 2483,1087 2057,780 2311,1288 2692,1542 3073,2050 3327,3193 3581,4336 3454,4971 3200,5606 4470,5987 4502,3814 4385,3321 Z"/>
         </g>
        </g>
       </g>
       <g class="Group">
        <g class="com.sun.star.drawing.ClosedBezierShape">
         <g id="id13">
          <rect class="BoundingBox" stroke="none" fill="none" x="999" y="1805" width="2197" height="4652"/>
          <path fill="rgb(178,178,178)" stroke="none" d="M 3150,4136 C 3023,4898 2654,6170 1765,6296 1248,6370 822,6677 1076,6169 1457,5915 1838,5407 2092,4264 2346,3121 2219,2486 1965,1851 3235,1470 3267,3643 3150,4136 Z"/>
          <path fill="none" stroke="rgb(52,101,164)" d="M 3150,4136 C 3023,4898 2654,6170 1765,6296 1248,6370 822,6677 1076,6169 1457,5915 1838,5407 2092,4264 2346,3121 2219,2486 1965,1851 3235,1470 3267,3643 3150,4136 Z"/>
         </g>
        </g>
        <g class="com.sun.star.drawing.ClosedBezierShape">
         <g id="id14">
          <rect class="BoundingBox" stroke="none" fill="none" x="1034" y="1001" width="2197" height="4652"/>
          <path fill="rgb(153,153,153)" stroke="none" d="M 3185,3321 C 3058,2559 2689,1287 1800,1161 1283,1087 857,780 1111,1288 1492,1542 1873,2050 2127,3193 2381,4336 2254,4971 2000,5606 3270,5987 3302,3814 3185,3321 Z"/>
          <path fill="none" stroke="rgb(52,101,164)" d="M 3185,3321 C 3058,2559 2689,1287 1800,1161 1283,1087 857,780 1111,1288 1492,1542 1873,2050 2127,3193 2381,4336 2254,4971 2000,5606 3270,5987 3302,3814 3185,3321 Z"/>
         </g>
        </g>
       </g>
      </g>
     </g>
    </g>
   </g>
  </g>
 </g>
</svg>