<?xml version="1.0" encoding="UTF-8"?>
<!DOCTYPE svg PUBLIC "-//W3C//DTD SVG 1.1//EN" "http://www.w3.org/Graphics/SVG/1.1/DTD/svg11.dtd">
<svg version="1.2" width="215.9mm" height="279.4mm" viewBox="0 0 21590 27940" preserveAspectRatio="xMidYMid" fill-rule="evenodd" stroke-width="28.222" stroke-linejoin="round" xmlns="http://www.w3.org/2000/svg" xmlns:ooo="http://xml.openoffice.org/svg/export" xmlns:xlink="http://www.w3.org/1999/xlink" xmlns:presentation="http://sun.com/xmlns/staroffice/presentation" xmlns:smil="http://www.w3.org/2001/SMIL20/" xmlns:anim="urn:oasis:names:tc:opendocument:xmlns:animation:1.0" xml:space="preserve">
 <defs class="ClipPathGroup">
  <clipPath id="presentation_clip_path" clipPathUnits="userSpaceOnUse">
   <rect x="0" y="0" width="21590" height="27940"/>
  </clipPath>
  <clipPath id="presentation_clip_path_shrink" clipPathUnits="userSpaceOnUse">
   <rect x="21" y="27" width="21547" height="27885"/>
  </clipPath>
 </defs>
 <defs class="TextShapeIndex">
  <g ooo:slide="id1" ooo:id-list="id3 id4 id5 id6 id7 id8 id9 id10 id11 id12 id13 id14"/>
 </defs>
 <defs class="EmbeddedBulletChars">
  <g id="bullet-char-template(57356)" transform="scale(0.00048828125,-0.00048828125)">
   <path d="M 580,1141 L 1163,571 580,0 -4,571 580,1141 Z"/>
  </g>
  <g id="bullet-char-template(57354)" transform="scale(0.00048828125,-0.00048828125)">
   <path d="M 8,1128 L 1137,1128 1137,0 8,0 8,1128 Z"/>
  </g>
  <g id="bullet-char-template(10146)" transform="scale(0.00048828125,-0.00048828125)">
   <path d="M 174,0 L 602,739 174,1481 1456,739 174,0 Z M 1358,739 L 309,1346 659,739 1358,739 Z"/>
  </g>
  <g id="bullet-char-template(10132)" transform="scale(0.00048828125,-0.00048828125)">
   <path d="M 2015,739 L 1276,0 717,0 1260,543 174,543 174,936 1260,936 717,1481 1274,1481 2015,739 Z"/>
  </g>
  <g id="bullet-char-template(10007)" transform="scale(0.00048828125,-0.00048828125)">
   <path d="M 0,-2 C -7,14 -16,27 -25,37 L 356,567 C 262,823 215,952 215,954 215,979 228,992 255,992 264,992 276,990 289,987 310,991 331,999 354,1012 L 381,999 492,748 772,1049 836,1024 860,1049 C 881,1039 901,1025 922,1006 886,937 835,863 770,784 769,783 710,716 594,584 L 774,223 C 774,196 753,168 711,139 L 727,119 C 717,90 699,76 672,76 641,76 570,178 457,381 L 164,-76 C 142,-110 111,-127 72,-127 30,-127 9,-110 8,-76 1,-67 -2,-52 -2,-32 -2,-23 -1,-13 0,-2 Z"/>
  </g>
  <g id="bullet-char-template(10004)" transform="scale(0.00048828125,-0.00048828125)">
   <path d="M 285,-33 C 182,-33 111,30 74,156 52,228 41,333 41,471 41,549 55,616 82,672 116,743 169,778 240,778 293,778 328,747 346,684 L 369,508 C 377,444 397,411 428,410 L 1163,1116 C 1174,1127 1196,1133 1229,1133 1271,1133 1292,1118 1292,1087 L 1292,965 C 1292,929 1282,901 1262,881 L 442,47 C 390,-6 338,-33 285,-33 Z"/>
  </g>
  <g id="bullet-char-template(9679)" transform="scale(0.00048828125,-0.00048828125)">
   <path d="M 813,0 C 632,0 489,54 383,161 276,268 223,411 223,592 223,773 276,916 383,1023 489,1130 632,1184 813,1184 992,1184 1136,1130 1245,1023 1353,916 1407,772 1407,592 1407,412 1353,268 1245,161 1136,54 992,0 813,0 Z"/>
  </g>
  <g id="bullet-char-template(8226)" transform="scale(0.00048828125,-0.00048828125)">
   <path d="M 346,457 C 273,457 209,483 155,535 101,586 74,649 74,723 74,796 101,859 155,911 209,963 273,989 346,989 419,989 480,963 531,910 582,859 608,796 608,723 608,648 583,586 532,535 482,483 420,457 346,457 Z"/>
  </g>
  <g id="bullet-char-template(8211)" transform="scale(0.00048828125,-0.00048828125)">
   <path d="M -4,459 L 1135,459 1135,606 -4,606 -4,459 Z"/>
  </g>
  <g id="bullet-char-template(61548)" transform="scale(0.00048828125,-0.00048828125)">
   <path d="M 173,740 C 173,903 231,1043 346,1159 462,1274 601,1332 765,1332 928,1332 1067,1274 1183,1159 1299,1043 1357,903 1357,740 1357,577 1299,437 1183,322 1067,206 928,148 765,148 601,148 462,206 346,322 231,437 173,577 173,740 Z"/>
  </g>
 </defs>
 <defs class="TextEmbeddedBitmaps"/>
 <g>
  <g id="id2" class="Master_Slide">
   <g id="bg-id2" class="Background"/>
   <g id="bo-id2" class="BackgroundObjects"/>
  </g>
 </g>
 <g class="SlideGroup">
  <g>
   <g id="container-id1">
    <g id="id1" class="Slide" clip-path="url(#presentation_clip_path)">
     <g class="Page">
      <g class="Group">
       <g class="Group">
        <g class="com.sun.star.drawing.ClosedBezierShape">
         <g id="id3">
          <rect class="BoundingBox" stroke="none" fill="none" x="6841" y="1803" width="2197" height="4652"/>
          <path fill="rgb(204,0,102)" stroke="none" d="M 8992,4134 C 8865,4896 8496,6168 7607,6294 7090,6368 6664,6675 6918,6167 7299,5913 7680,5405 7934,4262 8188,3119 8061,2484 7807,1849 9077,1468 9109,3641 8992,4134 Z"/>
          <path fill="none" stroke="rgb(52,101,164)" d="M 8992,4134 C 8865,4896 8496,6168 7607,6294 7090,6368 6664,6675 6918,6167 7299,5913 7680,5405 7934,4262 8188,3119 8061,2484 7807,1849 9077,1468 9109,3641 8992,4134 Z"/>
         </g>
        </g>
        <g class="com.sun.star.drawing.ClosedBezierShape">
         <g id="id4">
          <rect class="BoundingBox" stroke="none" fill="none" x="6876" y="999" width="2197" height="4652"/>
          <path fill="rgb(255,255,153)" stroke="none" d="M 9027,3319 C 8900,2557 8531,1285 7642,1159 7125,1085 6699,778 6953,1286 7334,1540 7715,2048 7969,3191 8223,4334 8096,4969 7842,5604 9112,5985 9144,3812 9027,3319 Z"/>
          <path fill="none" stroke="rgb(52,101,164)" d="M 9027,3319 C 8900,2557 8531,1285 7642,1159 7125,1085 6699,778 6953,1286 7334,1540 7715,2048 7969,3191 8223,4334 8096,4969 7842,5604 9112,5985 9144,3812 9027,3319 Z"/>
         </g>
        </g>
       </g>
       <g class="Group">
        <g class="com.sun.star.drawing.ClosedBezierShape">
         <g id="id5">
          <rect class="BoundingBox" stroke="none" fill="none" x="5698" y="1803" width="2197" height="4652"/>
          <path fill="rgb(51,0,51)" stroke="none" d="M 7849,4134 C 7722,4896 7353,6168 6464,6294 5947,6368 5521,6675 5775,6167 6156,5913 6537,5405 6791,4262 7045,3119 6918,2484 6664,1849 7934,1468 7966,3641 7849,4134 Z"/>
          <path fill="none" stroke="rgb(52,101,164)" d="M 7849,4134 C 7722,4896 7353,6168 6464,6294 5947,6368 5521,6675 5775,6167 6156,5913 6537,5405 6791,4262 7045,3119 6918,2484 6664,1849 7934,1468 7966,3641 7849,4134 Z"/>
         </g>
        </g>
        <g class="com.sun.star.drawing.ClosedBezierShape">
         <g id="id6">
          <rect class="BoundingBox" stroke="none" fill="none" x="5733" y="999" width="2197" height="4652"/>
          <path fill="rgb(114,159,207)" stroke="none" d="M 7884,3319 C 7757,2557 7388,1285 6499,1159 5982,1085 5556,778 5810,1286 6191,1540 6572,2048 6826,3191 7080,4334 6953,4969 6699,5604 7969,5985 8001,3812 7884,3319 Z"/>
          <path fill="none" stroke="rgb(52,101,164)" d="M 7884,3319 C 7757,2557 7388,1285 6499,1159 5982,1085 5556,778 5810,1286 6191,1540 6572,2048 6826,3191 7080,4334 6953,4969 6699,5604 7969,5985 8001,3812 7884,3319 Z"/>
         </g>
        </g>
       </g>
       <g class="Group">
        <g class="com.sun.star.drawing.ClosedBezierShape">
         <g id="id7">
          <rect class="BoundingBox" stroke="none" fill="none" x="4536" y="1811" width="2197" height="4652"/>
          <path fill="rgb(204,0,102)" stroke="none" d="M 6687,4142 C 6560,4904 6191,6176 5302,6302 4785,6376 4359,6683 4613,6175 4994,5921 5375,5413 5629,4270 5883,3127 5756,2492 5502,1857 6772,1476 6804,3649 6687,4142 Z"/>
          <path fill="none" stroke="rgb(52,101,164)" d="M 6687,4142 C 6560,4904 6191,6176 5302,6302 4785,6376 4359,6683 4613,6175 4994,5921 5375,5413 5629,4270 5883,3127 5756,2492 5502,1857 6772,1476 6804,3649 6687,4142 Z"/>
         </g>
        </g>
        <g class="com.sun.star.drawing.ClosedBezierShape">
         <g id="id8">
          <rect class="BoundingBox" stroke="none" fill="none" x="4571" y="1007" width="2197" height="4652"/>
          <path fill="rgb(255,255,153)" stroke="none" d="M 6722,3327 C 6595,2565 6226,1293 5337,1167 4820,1093 4394,786 4648,1294 5029,1548 5410,2056 5664,3199 5918,4342 5791,4977 5537,5612 6807,5993 6839,3820 6722,3327 Z"/>
          <path fill="none" stroke="rgb(52,101,164)" d="M 6722,3327 C 6595,2565 6226,1293 5337,1167 4820,1093 4394,786 4648,1294 5029,1548 5410,2056 5664,3199 5918,4342 5791,4977 5537,5612 6807,5993 6839,3820 6722,3327 Z"/>
         </g>
        </g>
       </g>
       <g class="Group">
        <g class="com.sun.star.drawing.ClosedBezierShape">
         <g id="id9">
          <rect class="BoundingBox" stroke="none" fill="none" x="3355" y="1811" width="2197" height="4652"/>
          <path fill="rgb(51,0,51)" stroke="none" d="M 5506,4142 C 5379,4904 5010,6176 4121,6302 3604,6376 3178,6683 3432,6175 3813,5921 4194,5413 4448,4270 4702,3127 4575,2492 4321,1857 5591,1476 5623,3649 5506,4142 Z"/>
          <path fill="none" stroke="rgb(52,101,164)" d="M 5506,4142 C 5379,4904 5010,6176 4121,6302 3604,6376 3178,6683 3432,6175 3813,5921 4194,5413 4448,4270 4702,3127 4575,2492 4321,1857 5591,1476 5623,3649 5506,4142 Z"/>
         </g>
        </g>
        <g class="com.sun.star.drawing.ClosedBezierShape">
         <g id="id10">
          <rect class="BoundingBox" stroke="none" fill="none" x="3390" y="1007" width="2197" height="4652"/>
          <path fill="rgb(114,159,207)" stroke="none" d="M 5541,3327 C 5414,2565 5045,1293 4156,1167 3639,1093 3213,786 3467,1294 3848,1548 4229,2056 4483,3199 4737,4342 4610,4977 4356,5612 5626,5993 5658,3820 5541,3327 Z"/>
          <path fill="none" stroke="rgb(52,101,164)" d="M 5541,3327 C 5414,2565 5045,1293 4156,1167 3639,1093 3213,786 3467,1294 3848,1548 4229,2056 4483,3199 4737,4342 4610,4977 4356,5612 5626,5993 5658,3820 5541,3327 Z"/>
         </g>
        </g>
       </g>
       <g class="Group">
        <g class="com.sun.star.drawing.ClosedBezierShape">
         <g id="id11">
          <rect class="BoundingBox" stroke="none" fill="none" x="2169" y="1803" width="2197" height="4652"/>
          <path fill="rgb(204,0,102)" stroke="none" d="M 4320,4134 C 4193,4896 3824,6168 2935,6294 2418,6368 1992,6675 2246,6167 2627,5913 3008,5405 3262,4262 3516,3119 3389,2484 3135,1849 4405,1468 4437,3641 4320,4134 Z"/>
          <path fill="none" stroke="rgb(52,101,164)" d="M 4320,4134 C 4193,4896 3824,6168 2935,6294 2418,6368 1992,6675 2246,6167 2627,5913 3008,5405 3262,4262 3516,3119 3389,2484 3135,1849 4405,1468 4437,3641 4320,4134 Z"/>
         </g>
        </g>
        <g class="com.sun.star.drawing.ClosedBezierShape">
         <g id="id12">
          <rect class="BoundingBox" stroke="none" fill="none" x="2204" y="999" width="2197" height="4652"/>
          <path fill="rgb(255,255,153)" stroke="none" d="M 4355,3319 C 4228,2557 3859,1285 2970,1159 2453,1085 2027,778 2281,1286 2662,1540 3043,2048 3297,3191 3551,4334 3424,4969 3170,5604 4440,5985 4472,3812 4355,3319 Z"/>
          <path fill="none" stroke="rgb(52,101,164)" d="M 4355,3319 C 4228,2557 3859,1285 2970,1159 2453,1085 2027,778 2281,1286 2662,1540 3043,2048 3297,3191 3551,4334 3424,4969 3170,5604 4440,5985 4472,3812 4355,3319 Z"/>
         </g>
        </g>
       </g>
       <g class="Group">
        <g class="com.sun.star.drawing.ClosedBezierShape">
         <g id="id13">
          <rect class="BoundingBox" stroke="none" fill="none" x="999" y="1803" width="2197" height="4652"/>
          <path fill="rgb(51,0,51)" stroke="none" d="M 3150,4134 C 3023,4896 2654,6168 1765,6294 1248,6368 822,6675 1076,6167 1457,5913 1838,5405 2092,4262 2346,3119 2219,2484 1965,1849 3235,1468 3267,3641 3150,4134 Z"/>
          <path fill="none" stroke="rgb(52,101,164)" d="M 3150,4134 C 3023,4896 2654,6168 1765,6294 1248,6368 822,6675 1076,6167 1457,5913 1838,5405 2092,4262 2346,3119 2219,2484 1965,1849 3235,1468 3267,3641 3150,4134 Z"/>
         </g>
        </g>
        <g class="com.sun.star.drawing.ClosedBezierShape">
         <g id="id14">
          <rect class="BoundingBox" stroke="none" fill="none" x="1034" y="999" width="2197" height="4652"/>
          <path fill="rgb(114,159,207)" stroke="none" d="M 3185,3319 C 3058,2557 2689,1285 1800,1159 1283,1085 857,778 1111,1286 1492,1540 1873,2048 2127,3191 2381,4334 2254,4969 2000,5604 3270,5985 3302,3812 3185,3319 Z"/>
          <path fill="none" stroke="rgb(52,101,164)" d="M 3185,3319 C 3058,2557 2689,1285 1800,1159 1283,1085 857,778 1111,1286 1492,1540 1873,2048 2127,3191 2381,4334 2254,4969 2000,5604 3270,5985 3302,3812 3185,3319 Z"/>
         </g>
        </g>
       </g>
      </g>
     </g>
    </g>
   </g>
  </g>
 </g>
</svg>