<?xml version="1.0" encoding="UTF-8" standalone="no"?>
<!-- Created with Inkscape (http://www.inkscape.org/) -->

<svg
   xmlns:dc="http://purl.org/dc/elements/1.1/"
   xmlns:cc="http://creativecommons.org/ns#"
   xmlns:rdf="http://www.w3.org/1999/02/22-rdf-syntax-ns#"
   xmlns:svg="http://www.w3.org/2000/svg"
   xmlns="http://www.w3.org/2000/svg"
   xmlns:xlink="http://www.w3.org/1999/xlink"
   xmlns:sodipodi="http://sodipodi.sourceforge.net/DTD/sodipodi-0.dtd"
   xmlns:inkscape="http://www.inkscape.org/namespaces/inkscape"
   version="1.2"
   width="744.09448"
   height="1052.3622"
   id="svg2"
   inkscape:version="0.48.5 r10040"
   sodipodi:docname="chordasaraus_1.svg">
  <sodipodi:namedview
     pagecolor="#ffffff"
     bordercolor="#666666"
     borderopacity="1"
     objecttolerance="10"
     gridtolerance="10"
     guidetolerance="10"
     inkscape:pageopacity="0"
     inkscape:pageshadow="2"
     inkscape:window-width="1600"
     inkscape:window-height="1200"
     id="namedview3139"
     showgrid="false"
     inkscape:zoom="1.2847176"
     inkscape:cx="379.86926"
     inkscape:cy="712.70137"
     inkscape:window-x="0"
     inkscape:window-y="0"
     inkscape:window-maximized="0"
     inkscape:current-layer="svg2" />
  <defs
     id="defs4">
    <linearGradient
       id="linearGradient3935">
      <stop
         id="stop3937"
         style="stop-color:#ffffff;stop-opacity:1"
         offset="0" />
      <stop
         id="stop3939"
         style="stop-color:#ffffff;stop-opacity:0"
         offset="1" />
    </linearGradient>
    <linearGradient
       id="linearGradient3860">
      <stop
         id="stop3862"
         style="stop-color:#f6fff2;stop-opacity:1"
         offset="0" />
    </linearGradient>
    <linearGradient
       x1="119.14453"
       y1="639.14734"
       x2="386.29297"
       y2="639.14734"
       id="linearGradient3941"
       xlink:href="#linearGradient3935"
       gradientUnits="userSpaceOnUse" />
    <linearGradient
       x1="119.14453"
       y1="639.14734"
       x2="386.29297"
       y2="639.14734"
       id="linearGradient3945"
       xlink:href="#linearGradient3935"
       gradientUnits="userSpaceOnUse" />
  </defs>
  <metadata
     id="metadata7">
    <rdf:RDF>
      <cc:Work
         rdf:about="">
        <dc:format>image/svg+xml</dc:format>
        <dc:type
           rdf:resource="http://purl.org/dc/dcmitype/StillImage" />
        <dc:title />
      </cc:Work>
    </rdf:RDF>
  </metadata>
  <g
     id="layer1"
     transform="translate(3.8919061,-20.237911)">
    <rect
       width="747.89825"
       height="645.24554"
       x="1.7736842e-05"
       y="0.69575363"
       id="rect3943"
       style="fill:#352521;fill-opacity:1" />
    <path
       d="m 500.56765,64.520549 c -22.59291,4.068506 -26.34925,-0.320476 -47.53731,31.683747 -22.74354,43.367034 -39.77738,65.114164 -62.89312,87.906894 -25.94456,20.24249 -29.66707,44.0538 -56.14354,63.64007 -31.02365,27.00965 -47.23268,54.27108 -66.96173,77.07437 -13.84893,24.85857 -22.06181,31.21415 -31.34905,91.90145 -8.02976,30.57319 -30.15584,68.04645 -72.33634,81.94876 -51.24036,20.44878 -120.687394,-67.50673 -131.683114,-51.70813 -12.611428,-10.99931 25.276256,37.40433 49.240976,56.81082 71.896548,55.24494 132.549788,47.55895 197.102688,-3.18148 27.09345,-14.86323 49.12768,-37.87562 76.47282,-17.75246 0.77003,78.74219 -15.30962,63.35294 52.72403,64.96887 43.57726,0.004 38.72728,-15.14267 52.07657,-0.73603 9.65334,-24.66485 -4.84204,-29.24441 -34.06713,-29.3363 -42.05926,2.73055 -18.84346,-13.50616 -14.9632,-41.2587 -2.21963,-31.4662 -13.5047,-41.7557 31.22482,-75.11314 17.51259,-19.03664 29.16301,-46.03975 32.10858,-86.00207 0.85102,-12.05888 3.6673,-25.87369 24.94516,-30.72143 20.82876,27.51778 46.00223,-11.38383 72.83706,28.92696 8.86293,1.00596 14.03284,-1.77247 13.92179,-14.27608 -15.06097,-22.61375 -35.74932,-29.21911 -69.66589,-35.10721 -13.09542,-13.15072 0.46237,-22.65098 -0.8496,-47.72764 1.63988,-22.37238 6.29111,-28.84806 57.43858,-28.7784 13.00204,5.89104 34.48857,-7.33843 22.14098,-14.36876 -13.78087,-0.2021 -59.44846,1.19024 -43.73385,-18.06837 43.61357,-5.97899 56.36502,7.62967 56.9288,-21.60855 C 605.89422,98.810596 569.59925,100.60243 549.85924,99.612427 538.82626,68.029698 521.95639,69.349247 500.56765,64.520549 z"
       id="path2991"
       style="fill:#597093;fill-opacity:0.49816853;stroke:#00002c;stroke-width:2;stroke-linecap:butt;stroke-linejoin:miter;stroke-miterlimit:4;stroke-opacity:0.3770883;stroke-dasharray:none"
       inkscape:connector-curvature="0"
       sodipodi:nodetypes="cccccccccccccccccccccccccccc" />
    <rect
       width="676.66986"
       height="666.19507"
       x="12.569718"
       y="0.6957531"
       id="rect3933"
       style="opacity:0;fill:#3e69c2;fill-opacity:0.69230772" />
    <path
       style="fill:#a42521;fill-opacity:1;fill-rule:evenodd;stroke:#610000;stroke-opacity:1"
       d="m 160.11753,127.0626 c -19.60498,-24.9707 -1.47396,-88.621203 52.31544,-84.72007 8.91603,2.241713 29.62632,10.130488 22.84022,36.560943 -4.3458,8.469981 -3.41585,17.576208 -18.06301,23.840757 -15.63872,11.09846 -12.14285,33.06653 -6.3286,45.81932 12.50118,30.46806 28.54035,34.54801 39.50485,26.63221 15.37549,-0.63646 11.49035,-21.60481 4.00762,-32.71591 -10.81304,-24.54191 7.47068,-44.689957 18.20764,-52.184217 11.2479,-9.89277 57.43638,-2.776274 56.90654,17.001377 11.95938,33.24518 -21.42848,61.46552 3.27466,62.64988 13.94438,8.03061 58.13691,-7.64716 73.10916,-2.9834 30.64626,4.69493 85.35053,32.54896 115.94141,27.62729 -10.86586,15.83501 4.925,15.13204 -12.02123,12.90926 C 372.201,171.10321 398.11873,191.5164 392.26537,181.05745 c -49.50644,-12.7733 -82.11267,21.86829 -96.6758,-9.37789 -6.48,-13.93259 19.29242,-44.79464 0.52561,-52.41866 -12.53896,-7.29615 -27.47795,10.12224 -25.61142,14.71767 3.18642,10.19955 8.51667,38.50935 2.60476,42.89511 -3.98525,19.29661 -40.98329,10.08089 -48.02747,2.66399 -27.72538,-16.47413 -37.386,-35.80576 -35.12573,-55.24424 -1.01284,-12.74305 -2.84162,-11.37055 12.1345,-34.649893 15.4522,-14.617585 12.40611,-16.140502 8.28348,-23.031718 -7.40069,-3.176848 -10.77919,-13.870799 -20.99522,0.750118 -21.01334,22.84784 0.1723,23.621283 -10.32607,40.830623 -12.02592,-0.55523 -15.99463,14.13845 -18.93448,18.87004 z"
       id="path4139"
       inkscape:connector-curvature="0"
       sodipodi:nodetypes="ccccccccccccccccccccccccc" />
    <path
       style="font-size:40px;font-style:normal;font-variant:normal;font-weight:bold;font-stretch:normal;text-align:start;line-height:139.99999762%;letter-spacing:0px;word-spacing:0px;writing-mode:lr-tb;text-anchor:start;fill:#ffffff;fill-opacity:1;fill-rule:evenodd;stroke:#83b5c5;stroke-width:1.23000002;stroke-miterlimit:4;stroke-opacity:1;stroke-dasharray:none;font-family:Verdana;-inkscape-font-specification:Verdana Bold"
       d="m 466.17624,111.16469 c -19.41194,-0.30244 -6.68519,36.41807 6.36712,19.30663 11.61683,2.53758 -13.38878,11.72377 0.39369,13.44649 14.54304,-0.13423 12.47806,-32.91526 -2.94389,-20.55769 -11.98626,5.39206 -2.47729,-7.2045 0.4446,-9.00295 l -2.00616,-1.61767 -2.25536,-1.57481 0,0 z m -18.77148,22.20791 c -13.30936,8.23673 21.15073,21.19019 3.08187,24.73445 -4.10854,-5.09049 -21.62025,-14.50155 -15.97391,-0.76572 7.31061,11.48002 26.15548,14.50383 29.87618,-0.75351 7.32672,-10.64777 -12.47298,-15.8954 -16.98414,-23.21522 z m -19.32095,29.69878 c -10.28715,-4.33033 -17.26781,23.00837 -8.07774,13.72078 4.21668,-7.0083 10.42307,-2.11525 3.66355,2.7314 -6.0385,15.80696 20.25973,18.67665 21.46147,3.14272 5.36118,-10.33665 -10.99951,-15.12555 -17.04728,-19.5949 z m 5.19171,12.91405 c 11.48924,2.44778 -8.77834,15.57824 -1.68919,2.81738 0.53308,-0.95706 1.11562,-1.88444 1.68919,-2.81738 z m -23.84458,6.35808 c -4.89138,8.31209 -15.40964,19.49051 -0.74305,24.60877 3.61361,8.05376 20.69721,7.54495 10.48215,-1.84367 -8.08291,-4.16751 -8.16985,-13.99025 -5.32953,-20.1095 -1.11717,-1.37193 -2.78722,-2.09262 -4.40957,-2.6556 z m -14.9955,24.15541 c -10.29519,-4.33013 -17.28761,23.00729 -8.1075,13.7328 4.19222,-7.02011 10.47508,-2.16579 3.68825,2.70834 -6.04681,15.7999 20.21596,18.68353 21.45129,3.17626 5.49826,-10.11839 -11.08892,-15.28924 -17.03204,-19.6174 z m 5.16047,12.91345 c 11.50529,2.41478 -8.73787,15.59669 -1.68919,2.81738 0.53308,-0.95706 1.11562,-1.88444 1.68919,-2.81738 z m -24.07683,8.69783 c -19.50288,1.03642 -6.78889,35.78432 7.49378,19.77651 4.40396,2.83523 -12.9991,16.24114 2.16359,12.53242 16.14304,-7.96071 3.65139,-31.65457 -10.98125,-18.77343 -6.74789,-4.21109 15.09323,-10.26566 1.32388,-13.5355 z m -17.51892,25.35741 c -10.25739,-4.26913 -17.2878,22.9803 -8.09286,13.75951 4.20705,-6.99954 10.44374,-2.15487 3.67785,2.71099 -6.02972,15.89801 20.36283,18.62751 21.47918,3.02723 5.50387,-10.422 -11.22855,-14.7773 -17.06417,-19.49773 z m 5.15987,12.9447 c 11.5009,2.42586 -8.7448,15.57364 -1.6773,2.79978 0.52737,-0.9523 1.10715,-1.87294 1.6773,-2.79978 z m -25.70392,8.79175 c -11.91997,6.61592 -16.24778,28.78098 -1.2556,34.32939 6.2681,4.898 21.62345,-15.27647 15.7088,-1.88499 -9.74949,6.29969 3.25176,14.85662 6.85859,4.70288 10.34662,-16.69339 -10.88293,-28.20637 -21.31179,-37.14728 z m -0.1129,10.81232 c 18.84127,4.56176 -5.03592,25.09688 -3.88097,3.99306 0.49402,-1.86971 1.96112,-3.52592 3.88097,-3.99306 z m -19.97607,18.18416 c -11.02728,5.48824 -18.15883,20.53559 -5.14329,27.88519 3.97134,8.10936 20.78871,5.22631 10.06365,-2.75546 -8.99177,-2.7155 -10.21925,-20.5371 1.08652,-11.75015 4.20552,8.08507 19.4746,7.15629 9.95229,-2.76307 -4.21435,-4.89772 -9.72529,-8.78917 -15.95917,-10.61651 z m -18.11476,27.09634 c -17.15493,-0.71293 -17.66673,29.09579 -1.33518,30.81341 17.55596,3.6316 22.2721,-27.34581 5.0438,-29.99675 -1.2129,-0.39311 -2.44406,-0.65671 -3.70862,-0.81666 z m -2.71249,7.82461 c 17.57361,-2.65945 4.09517,27.33178 -3.54188,8.04063 -1.45155,-3.02881 -0.65073,-8.00914 3.54188,-8.04063 z m -24.73535,8.81026 c -13.77314,1.74934 -18.84625,28.22508 -3.42394,30.07605 4.73646,-2.06052 22.19796,-10.49573 15.73448,0.29567 -7.93861,2.99202 -11.1978,16.19357 1.07463,10.91727 10.04599,-4.77441 12.60886,-22.47444 2.47281,-28.26934 -6.35039,-3.48916 -20.07912,11.81382 -20.5468,1.21616 2.60329,-3.93418 14.81578,-10.64552 4.68883,-14.23609 z"
       id="flowRoot3925"
       inkscape:connector-curvature="0" />
    <flowRoot
       xml:space="preserve"
       id="flowRoot3921"
       style="font-size:40px;font-style:normal;font-weight:normal;line-height:125%;letter-spacing:0px;word-spacing:0px;fill:#000000;fill-opacity:1;stroke:none;font-family:Sans"><flowRegion
         id="flowRegion3923"><rect
           id="rect3925"
           width="156.31322"
           height="100.17255"
           x="57.241459"
           y="158.5148" /></flowRegion><flowPara
         id="flowPara3927">somethingsomet</flowPara></flowRoot>  </g>
</svg>
