<?xml version="1.0" encoding="UTF-8" standalone="no"?>
<!-- Created with Inkscape (http://www.inkscape.org/) -->

<svg
   xmlns:osb="http://www.openswatchbook.org/uri/2009/osb"
   xmlns:dc="http://purl.org/dc/elements/1.1/"
   xmlns:cc="http://creativecommons.org/ns#"
   xmlns:rdf="http://www.w3.org/1999/02/22-rdf-syntax-ns#"
   xmlns:svg="http://www.w3.org/2000/svg"
   xmlns="http://www.w3.org/2000/svg"
   xmlns:xlink="http://www.w3.org/1999/xlink"
   xmlns:sodipodi="http://sodipodi.sourceforge.net/DTD/sodipodi-0.dtd"
   xmlns:inkscape="http://www.inkscape.org/namespaces/inkscape"
   width="744.09448819"
   height="1052.3622047"
   id="svg2"
   version="1.1"
   inkscape:version="0.48.5 r10040"
   sodipodi:docname="chordasaraus.svg">
  <defs
     id="defs4">
    <linearGradient
       inkscape:collect="always"
       id="linearGradient3935">
      <stop
         style="stop-color:#ffffff;stop-opacity:1;"
         offset="0"
         id="stop3937" />
      <stop
         style="stop-color:#ffffff;stop-opacity:0;"
         offset="1"
         id="stop3939" />
    </linearGradient>
    <linearGradient
       id="linearGradient3860"
       osb:paint="solid">
      <stop
         style="stop-color:#f6fff2;stop-opacity:1;"
         offset="0"
         id="stop3862" />
    </linearGradient>
    <linearGradient
       inkscape:collect="always"
       xlink:href="#linearGradient3935"
       id="linearGradient3941"
       x1="119.14453"
       y1="639.14731"
       x2="386.29297"
       y2="639.14731"
       gradientUnits="userSpaceOnUse" />
    <linearGradient
       inkscape:collect="always"
       xlink:href="#linearGradient3935"
       id="linearGradient3945"
       gradientUnits="userSpaceOnUse"
       x1="119.14453"
       y1="639.14731"
       x2="386.29297"
       y2="639.14731" />
  </defs>
  <sodipodi:namedview
     id="base"
     pagecolor="#ffffff"
     bordercolor="#666666"
     borderopacity="1.0"
     inkscape:pageopacity="0.0"
     inkscape:pageshadow="2"
     inkscape:zoom="0.47733767"
     inkscape:cx="407.94169"
     inkscape:cy="756.26682"
     inkscape:document-units="px"
     inkscape:current-layer="layer1"
     showgrid="false"
     inkscape:window-width="1600"
     inkscape:window-height="588"
     inkscape:window-x="0"
     inkscape:window-y="24"
     inkscape:window-maximized="0" />
  <metadata
     id="metadata7">
    <rdf:RDF>
      <cc:Work
         rdf:about="">
        <dc:format>image/svg+xml</dc:format>
        <dc:type
           rdf:resource="http://purl.org/dc/dcmitype/StillImage" />
      </cc:Work>
    </rdf:RDF>
  </metadata>
  <g
     inkscape:label="Layer 1"
     inkscape:groupmode="layer"
     id="layer1">
    <rect
       style="fill:#6a91c2;fill-opacity:0.69230772"
       id="rect3943"
       width="747.89825"
       height="645.24554"
       x="1.7736842e-05"
       y="0.69575363" />
    <path
       style="fill:#4ecd52;fill-opacity:0.49816853;stroke:#000000;stroke-width:1px;stroke-linecap:butt;stroke-linejoin:miter;stroke-opacity:1"
       d="m 507.17244,72.22613 c -32.50009,-1.43548 -30.75245,7.385105 -43.13413,26.179761 -22.74354,43.367029 -50.78535,62.912569 -73.90109,85.705299 -25.94456,20.24249 -29.66707,44.0538 -56.14354,63.64007 -28.01267,20.6212 -56.65397,66.25591 -60.81291,101.15835 -17.93517,71.55896 -20.63859,62.54778 -34.32902,92.41275 -23.44092,28.37159 -36.24935,51.23498 -76.70713,50.80401 -38.48676,0.022 -75.453564,-53.25168 -86.449284,-37.45308 -12.611428,-10.99931 26.377054,34.10194 50.341774,53.50843 29.08558,24.07729 92.08739,26.03137 121.61313,4.86943 27.09345,-14.86323 54.83396,-64.55236 58.82766,-36.64539 23.34309,30.48256 28.12326,20.37603 16.91849,40.48423 0.27237,22.42042 63.35888,13.55629 80.27767,17.78865 17.73666,-4.01679 6.36429,-21.27173 -4.8474,-31.86031 -39.01055,3.19601 -38.06829,-15.89661 -19.13169,-54.97955 1.02744,-25.71801 33.79719,-19.55088 45.26809,-42.0663 28.52056,-31.14541 13.75185,-68.05569 36.51177,-93.70765 10.76129,-15.91941 25.25543,-25.00922 39.97859,-12.19674 7.88629,5.63538 40.76532,-21.5581 62.45099,-0.87279 8.08455,12.68168 22.5168,16.94108 21.30496,-4.36891 -18.81406,-30.13309 -46.8847,-26.01422 -83.95334,-30.32629 -17.36505,-14.03025 -17.09506,-21.66082 2.50812,-42.33429 0.53908,-12.4652 28.30705,-23.34408 76.15213,-23.27442 13.00204,5.89104 34.48857,-15.04401 22.14098,-22.07434 -13.78087,-0.2021 -67.15404,-2.11215 -51.43943,-21.37076 17.19444,-10.38218 66.2722,7.62967 63.53358,-21.60855 C 612.499,98.810596 561.89367,127.02156 549.85924,99.612427 546.53184,76.836076 520.85559,73.752436 507.17244,72.22613 z"
       id="path2991"
       inkscape:connector-curvature="0"
       sodipodi:nodetypes="cccccccccccccccccccccccccccc" />
    <flowRoot
       xml:space="preserve"
       id="flowRoot3925"
       style="font-size:40px;font-style:normal;font-variant:normal;font-weight:bold;font-stretch:normal;text-align:start;line-height:139.99999762%;letter-spacing:0px;word-spacing:0px;writing-mode:lr-tb;text-anchor:start;fill:#ffffff;fill-opacity:1;stroke:none;font-family:Verdana;-inkscape-font-specification:Verdana Bold"
       transform="matrix(0.70386496,-0.94465967,0.9895316,0.81991608,-204.42133,213.25473)"><flowRegion
         id="flowRegion3927"
         style="fill:url(#linearGradient3945);fill-opacity:1"><rect
           id="rect3929"
           width="544.68781"
           height="64.943542"
           x="115.22242"
           y="610.32709"
           style="font-size:40px;font-style:normal;font-variant:normal;font-weight:bold;font-stretch:normal;text-align:start;line-height:139.99999762%;writing-mode:lr-tb;text-anchor:start;fill:#ffffff;fill-opacity:1;font-family:Verdana;-inkscape-font-specification:Verdana Bold" /></flowRegion><flowPara
         id="flowPara3931"
         style="font-size:40px;font-style:normal;font-variant:normal;font-weight:bold;font-stretch:normal;text-align:start;line-height:139.99999762%;writing-mode:lr-tb;text-anchor:start;fill:#ffffff;fill-opacity:1;font-family:Verdana;-inkscape-font-specification:Verdana Bold">Rhymasaraus</flowPara></flowRoot>    <rect
       style="fill:#3e69c2;fill-opacity:0.69230771;opacity:0"
       id="rect3933"
       width="676.66986"
       height="666.19507"
       x="12.569718"
       y="0.6957531" />
  </g>
</svg>
